<svg xmlns="http://www.w3.org/2000/svg" viewBox="0 0 234 56" role="img" aria-labelledby="title desc">
  <title id="title">FixMob</title>
  <desc id="desc">FixMob phone repair logo.</desc>
  <rect x="1" y="1" width="54" height="54" rx="13" fill="#111821"/>
  <path d="M19 12.5h21.5A5.5 5.5 0 0 1 46 18v21.5A5.5 5.5 0 0 1 40.5 45H19a5.5 5.5 0 0 1-5.5-5.5V18A5.5 5.5 0 0 1 19 12.5Z" fill="#fff"/>
  <path d="M22 20h18v6.5H28.5v4.6h10v6.4h-10V47H22V20Z" fill="#1466c3"/>
  <path d="M39 36.2 49.4 46.6a2.4 2.4 0 0 1-3.4 3.4L35.6 39.6a8 8 0 0 1-8.4-10.8l4.6 4.6 3.7-3.7-4.6-4.6A8 8 0 0 1 39 36.2Z" fill="#167f68"/>
  <path d="M70 16h31v7.7H79.2v8.1h18.9v7.6H79.2V51H70V16Zm37.7 0h9.1v7.9h-9.1V16Zm.1 12.1h8.9V51h-8.9V28.1Zm21.3 11-9.6-11h10l4.7 5.8 4.8-5.8h9.8l-9.6 11 10.3 11.9h-10.2l-5.2-6.5-5.3 6.5h-9.9l10.2-11.9Zm24.1-23.1h9.7l10.3 17.1L183.4 16h9.5v35h-8.8V30.8l-8.4 13.7h-5.2l-8.5-13.7V51h-8.8V16Zm45.4 23.6c0-7 5.4-12.3 12.7-12.3s12.7 5.3 12.7 12.3S218.6 52 211.3 52s-12.7-5.4-12.7-12.4Zm16.8 0c0-3.2-1.7-5.2-4.1-5.2s-4.1 2-4.1 5.2 1.7 5.2 4.1 5.2 4.1-2 4.1-5.2Z" fill="#111821"/>
</svg>
