<svg xmlns="http://www.w3.org/2000/svg" viewBox="0 0 64 64" role="img" aria-labelledby="title desc">
  <title id="title">FixMob mark</title>
  <desc id="desc">A compact FixMob phone repair monogram.</desc>
  <rect width="64" height="64" rx="14" fill="#111821"/>
  <path d="M21 13.5h24a5.5 5.5 0 0 1 5.5 5.5v26A5.5 5.5 0 0 1 45 50.5H21A5.5 5.5 0 0 1 15.5 45V19a5.5 5.5 0 0 1 5.5-5.5Z" fill="#ffffff"/>
  <path d="M24 21h20v7H31v5h11v7H31v11h-7V21Z" fill="#1466c3"/>
  <path d="M41.3 39.2 53.8 51.7a2.7 2.7 0 0 1-3.8 3.8L37.5 43a8.8 8.8 0 0 1-9.4-11.9l5.2 5.2 4.2-4.2-5.2-5.2a8.8 8.8 0 0 1 9 12.3Z" fill="#167f68"/>
  <circle cx="33" cy="46" r="1.8" fill="#111821" opacity=".72"/>
</svg>
